<?xml version="1.0" encoding="UTF-8"?>
<!DOCTYPE svg PUBLIC "-//W3C//DTD SVG 1.1//EN" "http://www.w3.org/Graphics/SVG/1.1/DTD/svg11.dtd">
<!-- Creator: CorelDRAW -->
<svg xmlns="http://www.w3.org/2000/svg" xml:space="preserve" width="4.7504mm" height="5.3308mm" version="1.1" style="shape-rendering:geometricPrecision; text-rendering:geometricPrecision; image-rendering:optimizeQuality; fill-rule:evenodd; clip-rule:evenodd"
viewBox="0 0 0.32 0.36"
 xmlns:xlink="http://www.w3.org/1999/xlink"
 xmlns:xodm="http://www.corel.com/coreldraw/odm/2003">
 <defs>
  <style type="text/css">
   <![CDATA[
    .fil0 {fill:white;fill-rule:nonzero}
   ]]>
  </style>
 </defs>
 <g id="Слой_x0020_1">
  <metadata id="CorelCorpID_0Corel-Layer"/>
  <g id="user_icon_150670.svg">
   <g id="layer1">
    <path id="path1332" class="fil0" d="M0.16 0.19c-0.08,0 -0.15,0.07 -0.16,0.15 0,0 -0,0 -0,0 0,0.01 0.01,0.02 0.02,0.02 0,0 0,0 0,0l0.28 0c0.01,-0 0.02,-0.01 0.02,-0.02 0,-0 -0,-0 -0,-0 -0,-0.08 -0.07,-0.15 -0.16,-0.15l-0 0z"/>
    <path id="path1292" class="fil0" d="M0.16 0c-0.04,0 -0.08,0.04 -0.08,0.08 0,0.04 0.04,0.08 0.08,0.08 0.04,0 0.08,-0.04 0.08,-0.08 0,-0.04 -0.04,-0.08 -0.08,-0.08z"/>
   </g>
  </g>
 </g>
</svg>
