<?xml version="1.0" encoding="UTF-8"?>
<!DOCTYPE svg PUBLIC "-//W3C//DTD SVG 1.1//EN" "http://www.w3.org/Graphics/SVG/1.1/DTD/svg11.dtd">
<!-- Creator: CorelDRAW -->
<svg xmlns="http://www.w3.org/2000/svg" xml:space="preserve" width="7.4084mm" height="7.4084mm" version="1.1" style="shape-rendering:geometricPrecision; text-rendering:geometricPrecision; image-rendering:optimizeQuality; fill-rule:evenodd; clip-rule:evenodd"
viewBox="0 0 0.77 0.77"
 xmlns:xlink="http://www.w3.org/1999/xlink"
 xmlns:xodm="http://www.corel.com/coreldraw/odm/2003">
 <defs>
  <style type="text/css">
   <![CDATA[
    .fil0 {fill:white;fill-rule:nonzero}
   ]]>
  </style>
 </defs>
 <g id="Слой_x0020_1">
  <metadata id="CorelCorpID_0Corel-Layer"/>
  <g id="_1774398498320">
   <g id="laptop_notebook_technology_computer_desktop_screen_internet_monitor_pc_office" data-name="laptop, notebook, technology, computer, desktop, screen, internet, monitor, pc, office">
    <path class="fil0" d="M0.77 0.08c0,-0.05 -0.04,-0.08 -0.08,-0.08l-0.61 0c-0.05,0 -0.08,0.04 -0.08,0.08l-0 0.44c0,0.02 0.01,0.04 0.02,0.06 -0.01,0.02 -0.02,0.03 -0.02,0.06l0 0.06c0,0.05 0.04,0.08 0.08,0.08l0.61 0c0.05,-0 0.08,-0.04 0.08,-0.08l0 -0.06c-0,-0.02 -0.01,-0.04 -0.02,-0.06 0.01,-0.02 0.02,-0.03 0.02,-0.06l0 -0.44zm-0.72 0c0,-0.02 0.01,-0.03 0.03,-0.03l0.61 0c0.02,0 0.03,0.01 0.03,0.03l0 0.44c0,0.02 -0.01,0.03 -0.03,0.03l-0.17 0c-0.02,-0 -0.03,0.01 -0.03,0.03l0 0.03 -0.22 0 0 -0.03c0,-0.02 -0.01,-0.03 -0.03,-0.03l-0.17 0c-0.02,-0 -0.03,-0.01 -0.03,-0.03l-0 -0.44zm0.66 0.61c0,0.02 -0.01,0.03 -0.03,0.03l-0.61 0c-0.02,-0 -0.03,-0.01 -0.03,-0.03l-0 -0.06c0,-0.02 0.01,-0.03 0.03,-0.03l0.14 0c0,0.03 0.02,0.06 0.06,0.06l0.22 0c0.03,0 0.06,-0.02 0.06,-0.06l0.14 0c0.02,-0 0.03,0.01 0.03,0.03l0 0.06z"/>
    <path class="fil0" d="M0.14 0.5l0.5 0c0.02,0 0.03,-0.01 0.03,-0.03l-0 -0.33c0,-0.02 -0.01,-0.03 -0.03,-0.03l-0.5 0c-0.02,-0 -0.03,0.01 -0.03,0.03l0 0.33c0,0.02 0.01,0.03 0.03,0.03l-0 0zm0.03 -0.33l0.44 0 0 0.28 -0.44 0 0 -0.28z"/>
   </g>
  </g>
 </g>
</svg>
