<?xml version="1.0" encoding="UTF-8"?>
<!DOCTYPE svg PUBLIC "-//W3C//DTD SVG 1.1//EN" "http://www.w3.org/Graphics/SVG/1.1/DTD/svg11.dtd">
<!-- Creator: CorelDRAW -->
<svg xmlns="http://www.w3.org/2000/svg" xml:space="preserve" width="276.032mm" height="276.032mm" version="1.1" style="shape-rendering:geometricPrecision; text-rendering:geometricPrecision; image-rendering:optimizeQuality; fill-rule:evenodd; clip-rule:evenodd"
viewBox="0 0 162569.83 162569.83"
 xmlns:xlink="http://www.w3.org/1999/xlink"
 xmlns:xodm="http://www.corel.com/coreldraw/odm/2003">
 <defs>
  <style type="text/css">
   <![CDATA[
    .fil0 {fill:white}
   ]]>
  </style>
 </defs>
 <g id="Слой_x0020_1">
  <metadata id="CorelCorpID_0Corel-Layer"/>
  <path class="fil0" d="M81284.92 0c44892.43,0 81284.92,36392.54 81284.92,81284.92 0,44892.37 -36392.48,81284.92 -81284.92,81284.92 -44892.43,0 -81284.92,-36392.54 -81284.92,-81284.92 0,-44892.37 36392.48,-81284.92 81284.92,-81284.92zm14570.82 67250.51c41.87,-270.04 60.9,-521.28 60.9,-753.33 0,-2141.91 -1339.16,-3207.15 -4017.43,-3207.15 -1285.8,0 -2153.33,220.62 -2602.29,654.5 -456.5,441.18 -768.41,1312.6 -951.04,2617.43 -1027.25,-1445.76 -2062.04,-2419.71 -3104.37,-2925.68 -958.82,-460.44 -2332.08,-688.55 -4108.71,-688.55 -4576.7,0 -8548.36,2328.13 -11900.1,6981.04 -3089.3,4279.86 -4630,8852.67 -4630,13714.72 0,3796.81 1000.45,7129.34 3005.55,10005.55 2221.77,3169.16 5128.19,4751.73 8708.32,4751.73 3066.39,0 6011.03,-1099.58 8830.06,-3298.43 1270.73,2198.86 3443.08,3298.43 6509.17,3298.43 5805.55,0 10777.9,-2449.87 14905.58,-7353.85 3926.02,-4664.04 5889,-10028.4 5889,-16084.96 0,-7243.54 -3047.42,-13284.78 -9141.97,-18120.27 -5645.59,-4477.58 -12101.69,-6722.25 -19383.22,-6722.25 -9472.84,0 -17423.95,2994.06 -23864.92,8985.9 -6627.31,6178.3 -9940.82,14060.97 -9940.82,23655.54 0,9803.95 3397.26,17332.84 10184.3,22590.3 6094.55,4736.66 14087.76,7099.18 23986.71,7099.18 4215.14,0 8324.09,-658.16 12333.74,-1982.18 4397.71,-1441.88 8015.83,-3496.14 10857.77,-6159.33 916.94,-878.72 1799.55,-1947.85 2636.39,-3203.2 1046.22,-1533.22 1563.61,-2769.61 1563.61,-3709.17 0,-711.46 -247.36,-1346.7 -749.44,-1905.97 -498.43,-555.38 -1099.58,-833.19 -1791.77,-833.19 -1312.6,0 -2415.83,464.1 -3317.4,1381.04 -1487.4,1597.71 -2594.52,2815.14 -3309.86,3652.22 -4869.58,4253.36 -10918.6,6379.9 -18162.14,6379.9 -7768.47,0 -13984.99,-1905.97 -18645.2,-5717.91 -5094.09,-4165.73 -7639.2,-10134.88 -7639.2,-17903.36 0,-7540.31 2419.71,-13840.4 7270.1,-18900.16 4846.61,-5056.05 10952.65,-7586.07 18310.32,-7586.07 5790.18,0 10602.81,1643.47 14445.2,4938.02 4116.25,3492.49 6166.87,8141.51 6166.87,13939.23 0,3035.94 -517.4,5866.39 -1563.61,8479.93 -1164.07,2933.22 -2853.36,5192.92 -5059.76,6783.09 -1658.61,1190.86 -2956.07,1788.12 -3895.69,1788.12 -1023.37,0 -1533.22,-479.41 -1533.22,-1441.88 0,-399.55 262.5,-2240.73 798.86,-5531.63l2849.71 -17667.36zm-11808.81 17340.37c-1883.06,5223.37 -3888.15,7837.14 -6011.03,7837.14 -3172.81,0 -4759.33,-2023.82 -4759.33,-6075.58 0,-3146.25 909.17,-6688.15 2735.28,-10637.14 2126.53,-4660.45 4546.25,-6988.58 7266.45,-6988.58 1126.08,0 1962.92,608.68 2514.65,1822.22 448.96,928.13 673.47,2031.59 673.47,3309.86 0,2731.57 -802.74,6307.57 -2419.48,10732.08zm-2762.01 -65636.84c-34425.91,0 -62330.87,27904.96 -62330.87,62330.87 0,34425.91 27905.02,62330.87 62330.87,62330.87 34425.85,0 62330.87,-27905.02 62330.87,-62330.87 0,-34425.85 -27904.96,-62330.87 -62330.87,-62330.87zm0 114922.57c-29046.41,0 -52591.7,-23545.23 -52591.7,-52591.7 0,-29046.47 23545.29,-52591.7 52591.7,-52591.7 29046.41,0 52591.7,23545.23 52591.7,52591.7 0,29046.47 -23545.29,52591.7 -52591.7,52591.7z"/>
 </g>
</svg>
