<?xml version="1.0" encoding="UTF-8"?>
<!DOCTYPE svg PUBLIC "-//W3C//DTD SVG 1.1//EN" "http://www.w3.org/Graphics/SVG/1.1/DTD/svg11.dtd">
<!-- Creator: CorelDRAW -->
<svg xmlns="http://www.w3.org/2000/svg" xml:space="preserve" width="44.9982mm" height="12.9273mm" version="1.1" style="shape-rendering:geometricPrecision; text-rendering:geometricPrecision; image-rendering:optimizeQuality; fill-rule:evenodd; clip-rule:evenodd"
viewBox="0 0 2825.79 811.81"
 xmlns:xlink="http://www.w3.org/1999/xlink"
 xmlns:xodm="http://www.corel.com/coreldraw/odm/2003">
 <defs>
  <style type="text/css">
   <![CDATA[
    .str0 {stroke:black;stroke-width:12.56;stroke-miterlimit:22.9256}
    .fil0 {fill:none}
    .fil1 {fill:black}
   ]]>
  </style>
 </defs>
 <g id="Слой_x0020_1">
  <metadata id="CorelCorpID_0Corel-Layer"/>
  <path class="fil0 str0" d="M414.54 6.28l1996.71 0c224.55,0 408.27,175.21 408.27,389.35l0 20.55c0,214.14 -183.72,389.35 -408.27,389.35l-1996.71 0c-224.55,0 -408.26,-175.21 -408.26,-389.35l0 -20.55c0,-214.14 183.71,-389.35 408.26,-389.35z"/>
  <path class="fil1" d="M2552.57 397.76c0.53,-18.34 -3.19,-32.79 -11.08,-43.24 -7.89,-10.55 -20.03,-15.77 -36.51,-15.77 -8.33,0 -15.59,1.6 -21.71,4.7 -6.2,3.1 -11.34,7.27 -15.42,12.58 -4.08,5.31 -7.18,11.52 -9.31,18.69 -2.22,7.27 -3.45,14.89 -3.81,23.04l97.83 0zm63.27 18.61c0,7.98 -1.77,13.83 -5.31,17.63 -3.55,3.81 -8.42,5.76 -14.71,5.76l-141.08 0c0,9.83 1.16,18.69 3.55,26.76 2.3,7.98 6.02,14.8 11.08,20.38 5.14,5.58 11.69,9.83 19.76,12.76 8.06,2.92 17.63,4.43 28.89,4.43 11.43,0 21.45,-0.8 30.13,-2.48 8.59,-1.68 16.13,-3.45 22.42,-5.49 6.29,-2.03 11.52,-3.81 15.68,-5.49 4.17,-1.68 7.54,-2.48 10.1,-2.48 1.6,0 2.93,0.27 3.9,0.89 1.06,0.62 1.95,1.69 2.66,3.28 0.62,1.5 1.16,3.72 1.42,6.56 0.26,2.83 0.35,6.47 0.35,10.72 0,3.81 -0.09,7.09 -0.26,9.75 -0.18,2.66 -0.44,4.97 -0.8,6.83 -0.35,1.95 -0.8,3.54 -1.51,4.79 -0.71,1.33 -1.6,2.57 -2.74,3.81 -1.16,1.15 -4.16,2.83 -9.22,4.96 -5.05,2.13 -11.43,4.16 -19.23,6.2 -7.8,2.03 -16.66,3.81 -26.67,5.31 -10.02,1.51 -20.74,2.3 -32.17,2.3 -20.65,0 -38.63,-2.57 -54.14,-7.79 -15.42,-5.14 -28.35,-13.03 -38.81,-23.57 -10.37,-10.54 -18.08,-23.93 -23.22,-39.96 -5.06,-16.13 -7.62,-35 -7.62,-56.62 0,-20.56 2.66,-39.08 8.06,-55.65 5.32,-16.48 13.12,-30.48 23.39,-42.01 10.19,-11.52 22.6,-20.29 37.22,-26.32 14.71,-6.11 31.19,-9.12 49.53,-9.12 19.41,0 35.98,2.83 49.72,8.6 13.82,5.67 25.08,13.65 33.94,23.74 8.77,10.1 15.33,22.16 19.5,35.98 4.16,13.82 6.2,28.89 6.2,45.19l0 10.37zm-277.81 122.56c0,1.68 -0.53,3.19 -1.6,4.52 -0.98,1.33 -2.75,2.39 -5.14,3.28 -2.48,0.8 -5.76,1.51 -9.92,1.95 -4.17,0.45 -9.48,0.62 -15.86,0.62 -6.65,0 -12.05,-0.18 -16.22,-0.62 -4.16,-0.44 -7.53,-1.15 -10.01,-1.95 -2.48,-0.89 -4.25,-1.95 -5.23,-3.28 -0.97,-1.33 -1.41,-2.84 -1.41,-4.52l0 -137.35c0,-7.8 -0.71,-14.89 -2.22,-21.27 -1.42,-6.47 -3.72,-11.96 -6.74,-16.48 -3.01,-4.6 -6.82,-8.15 -11.34,-10.72 -4.61,-2.48 -10.01,-3.72 -16.39,-3.72 -7.8,0 -15.69,3.01 -23.57,9.13 -7.98,6.02 -16.57,14.88 -25.88,26.41l0 154.01c0,1.68 -0.53,3.19 -1.6,4.52 -0.97,1.33 -2.74,2.39 -5.31,3.28 -2.48,0.8 -5.85,1.51 -10.02,1.95 -4.16,0.45 -9.39,0.62 -15.59,0.62 -6.47,0 -11.79,-0.18 -15.95,-0.62 -4.17,-0.44 -7.54,-1.15 -10.02,-1.95 -2.57,-0.89 -4.34,-1.95 -5.32,-3.28 -1.06,-1.33 -1.6,-2.84 -1.6,-4.52l0 -137.35c0,-7.8 -0.7,-14.89 -2.21,-21.27 -1.42,-6.47 -3.64,-11.96 -6.65,-16.48 -2.92,-4.6 -6.73,-8.15 -11.34,-10.72 -4.7,-2.48 -10.19,-3.72 -16.39,-3.72 -7.98,0 -15.86,3.01 -23.84,9.13 -7.98,6.02 -16.57,14.88 -25.7,26.41l0 154.01c0,1.68 -0.53,3.19 -1.6,4.52 -0.97,1.33 -2.74,2.39 -5.31,3.28 -2.48,0.8 -5.85,1.51 -9.93,1.95 -4.16,0.45 -9.48,0.62 -15.86,0.62 -6.38,0 -11.69,-0.18 -15.86,-0.62 -4.08,-0.44 -7.44,-1.15 -9.92,-1.95 -2.57,-0.89 -4.34,-1.95 -5.32,-3.28 -1.06,-1.33 -1.6,-2.84 -1.6,-4.52l0 -231.82c0,-1.68 0.45,-3.19 1.33,-4.52 0.8,-1.33 2.39,-2.39 4.61,-3.28 2.3,-0.8 5.14,-1.5 8.68,-1.95 3.54,-0.45 8.06,-0.62 13.38,-0.62 5.58,0 10.1,0.18 13.74,0.62 3.63,0.45 6.47,1.15 8.5,1.95 1.95,0.89 3.37,1.95 4.26,3.28 0.89,1.33 1.33,2.83 1.33,4.52l0 26.76c12.76,-13.83 25.52,-24.1 38.28,-31.02 12.76,-6.91 26.05,-10.37 39.88,-10.37 9.57,0 18.17,0.97 25.79,3.01 7.62,1.95 14.36,4.79 20.38,8.5 5.94,3.72 11.08,8.16 15.42,13.29 4.34,5.23 7.98,10.99 10.9,17.37 6.91,-7.45 13.74,-13.83 20.38,-19.14 6.64,-5.32 13.29,-9.75 19.76,-13.12 6.47,-3.37 12.94,-5.85 19.49,-7.44 6.47,-1.68 13.03,-2.48 19.85,-2.48 15.33,0 28.36,2.57 38.9,7.8 10.54,5.14 19.05,12.23 25.52,21.18 6.56,8.86 11.17,19.32 13.91,31.28 2.75,11.96 4.17,24.55 4.17,37.93l0 148.25zm-605.87 -141.16c0.53,-18.34 -3.19,-32.79 -11.08,-43.24 -7.89,-10.55 -20.03,-15.77 -36.51,-15.77 -8.33,0 -15.59,1.6 -21.71,4.7 -6.2,3.1 -11.34,7.27 -15.42,12.58 -4.08,5.31 -7.18,11.52 -9.31,18.69 -2.22,7.27 -3.45,14.89 -3.81,23.04l97.83 0zm63.27 18.61c0,7.98 -1.77,13.83 -5.31,17.63 -3.55,3.81 -8.42,5.76 -14.71,5.76l-141.08 0c0,9.83 1.16,18.69 3.55,26.76 2.3,7.98 6.02,14.8 11.08,20.38 5.14,5.58 11.69,9.83 19.76,12.76 8.06,2.92 17.63,4.43 28.89,4.43 11.43,0 21.45,-0.8 30.13,-2.48 8.59,-1.68 16.13,-3.45 22.42,-5.49 6.29,-2.03 11.52,-3.81 15.68,-5.49 4.17,-1.68 7.54,-2.48 10.1,-2.48 1.6,0 2.93,0.27 3.9,0.89 1.06,0.62 1.95,1.69 2.66,3.28 0.62,1.5 1.16,3.72 1.42,6.56 0.26,2.83 0.35,6.47 0.35,10.72 0,3.81 -0.09,7.09 -0.26,9.75 -0.18,2.66 -0.44,4.97 -0.8,6.83 -0.35,1.95 -0.8,3.54 -1.51,4.79 -0.71,1.33 -1.6,2.57 -2.74,3.81 -1.16,1.15 -4.16,2.83 -9.22,4.96 -5.05,2.13 -11.43,4.16 -19.23,6.2 -7.8,2.03 -16.66,3.81 -26.67,5.31 -10.02,1.51 -20.74,2.3 -32.17,2.3 -20.65,0 -38.63,-2.57 -54.14,-7.79 -15.42,-5.14 -28.35,-13.03 -38.81,-23.57 -10.37,-10.54 -18.08,-23.93 -23.22,-39.96 -5.06,-16.13 -7.62,-35 -7.62,-56.62 0,-20.56 2.66,-39.08 8.06,-55.65 5.32,-16.48 13.12,-30.48 23.39,-42.01 10.19,-11.52 22.6,-20.29 37.22,-26.32 14.71,-6.11 31.19,-9.12 49.53,-9.12 19.41,0 35.98,2.83 49.72,8.6 13.82,5.67 25.08,13.65 33.94,23.74 8.77,10.1 15.33,22.16 19.5,35.98 4.16,13.82 6.2,28.89 6.2,45.19l0 10.37zm-247.86 -87.64c0,6.2 -0.18,11.35 -0.53,15.34 -0.35,3.99 -0.89,7.08 -1.5,9.3 -0.71,2.22 -1.69,3.81 -2.75,4.7 -1.15,0.89 -2.57,1.24 -4.34,1.24 -1.33,0 -2.93,-0.27 -4.7,-0.89 -1.68,-0.62 -3.64,-1.24 -5.85,-1.95 -2.12,-0.71 -4.52,-1.33 -7.08,-1.95 -2.66,-0.62 -5.49,-0.89 -8.6,-0.89 -3.64,0 -7.27,0.7 -10.9,2.21 -3.63,1.51 -7.44,3.72 -11.34,6.91 -3.9,3.1 -7.98,7.27 -12.23,12.41 -4.26,5.22 -8.77,11.61 -13.65,19.23l0 144.53c0,1.68 -0.53,3.19 -1.6,4.52 -0.97,1.33 -2.74,2.39 -5.31,3.28 -2.48,0.8 -5.85,1.51 -9.93,1.95 -4.16,0.45 -9.48,0.62 -15.86,0.62 -6.38,0 -11.69,-0.18 -15.86,-0.62 -4.08,-0.44 -7.44,-1.15 -9.92,-1.95 -2.57,-0.89 -4.34,-1.95 -5.32,-3.28 -1.06,-1.33 -1.6,-2.84 -1.6,-4.52l0 -231.82c0,-1.68 0.45,-3.19 1.33,-4.52 0.8,-1.33 2.39,-2.39 4.61,-3.28 2.3,-0.8 5.14,-1.5 8.68,-1.95 3.54,-0.45 8.06,-0.62 13.38,-0.62 5.58,0 10.1,0.18 13.74,0.62 3.63,0.45 6.47,1.15 8.5,1.95 1.95,0.89 3.37,1.95 4.26,3.28 0.89,1.33 1.33,2.83 1.33,4.52l0 28.89c6.03,-8.68 11.79,-15.77 17.11,-21.35 5.41,-5.58 10.54,-10.1 15.33,-13.38 4.87,-3.28 9.75,-5.58 14.62,-6.83 4.79,-1.33 9.66,-1.95 14.54,-1.95 2.21,0 4.7,0.09 7.27,0.35 2.57,0.27 5.31,0.71 8.06,1.33 2.74,0.62 5.22,1.33 7.27,2.04 2.13,0.8 3.64,1.6 4.61,2.48 0.89,0.89 1.6,1.86 2.03,2.83 0.45,1.07 0.8,2.48 1.16,4.35 0.35,1.77 0.62,4.52 0.8,8.15 0.18,3.63 0.26,8.51 0.26,14.71zm-208.78 -100.31c0,13.21 -2.66,22.24 -8.06,27.3 -5.41,5.05 -15.33,7.53 -29.95,7.53 -14.71,0 -24.72,-2.39 -29.77,-7.27 -5.14,-4.87 -7.71,-13.65 -7.71,-26.23 0,-13.2 2.66,-22.33 7.98,-27.47 5.23,-5.06 15.24,-7.62 30.04,-7.62 14.53,0 24.46,2.48 29.68,7.44 5.23,4.88 7.8,13.65 7.8,26.32zm-5.32 310.51c0,1.68 -0.53,3.19 -1.6,4.52 -0.97,1.33 -2.74,2.39 -5.31,3.28 -2.48,0.8 -5.85,1.51 -9.93,1.95 -4.16,0.45 -9.48,0.62 -15.86,0.62 -6.38,0 -11.69,-0.18 -15.86,-0.62 -4.08,-0.44 -7.44,-1.15 -9.92,-1.95 -2.57,-0.89 -4.34,-1.95 -5.32,-3.28 -1.06,-1.33 -1.6,-2.84 -1.6,-4.52l0 -231.28c0,-1.68 0.53,-3.19 1.6,-4.52 0.98,-1.33 2.75,-2.48 5.32,-3.37 2.48,-0.97 5.85,-1.68 9.92,-2.22 4.17,-0.53 9.48,-0.8 15.86,-0.8 6.38,0 11.7,0.27 15.86,0.8 4.08,0.53 7.45,1.24 9.93,2.22 2.57,0.89 4.34,2.04 5.31,3.37 1.07,1.33 1.6,2.84 1.6,4.52l0 231.28zm-134.96 -0.53c0,1.68 -0.53,3.28 -1.68,4.7 -1.16,1.33 -3.01,2.48 -5.58,3.37 -2.57,0.8 -6.03,1.51 -10.37,2.04 -4.26,0.53 -9.75,0.8 -16.22,0.8 -6.73,0 -12.31,-0.26 -16.75,-0.8 -4.43,-0.53 -7.79,-1.24 -10.37,-2.04 -2.48,-0.89 -4.25,-2.03 -5.4,-3.37 -1.16,-1.42 -1.69,-3.01 -1.69,-4.7l0 -135.84 -126.01 0 0 135.84c0,1.68 -0.53,3.28 -1.6,4.7 -0.97,1.33 -2.83,2.48 -5.4,3.37 -2.57,0.8 -6.03,1.51 -10.37,2.04 -4.26,0.53 -9.84,0.8 -16.48,0.8 -6.56,0 -12.05,-0.26 -16.48,-0.8 -4.43,-0.53 -7.89,-1.24 -10.46,-2.04 -2.57,-0.89 -4.43,-2.03 -5.58,-3.37 -1.15,-1.42 -1.68,-3.01 -1.68,-4.7l0 -317.42c0,-1.68 0.53,-3.28 1.68,-4.7 1.16,-1.33 3.01,-2.48 5.58,-3.37 2.57,-0.89 6.03,-1.51 10.46,-2.04 4.43,-0.53 9.93,-0.8 16.48,-0.8 6.64,0 12.23,0.27 16.48,0.8 4.34,0.53 7.79,1.24 10.37,2.04 2.57,0.89 4.43,2.04 5.4,3.37 1.07,1.42 1.6,3.01 1.6,4.7l0 123.62 126.01 0 0 -123.62c0,-1.68 0.53,-3.28 1.69,-4.7 1.15,-1.33 2.92,-2.48 5.4,-3.37 2.57,-0.8 5.94,-1.51 10.37,-2.04 4.43,-0.53 10.02,-0.8 16.75,-0.8 6.47,0 11.96,0.27 16.22,0.8 4.34,0.53 7.8,1.16 10.37,2.04 2.57,0.89 4.43,2.04 5.58,3.37 1.15,1.42 1.68,3.01 1.68,4.7l0 317.42z"/>
  <path class="fil1" d="M272.89 369.72c-39.95,17.44 -80.99,35.36 -118.52,56.03 -19.6,14.35 6.45,24.5 30.88,34.02 3.89,1.51 7.73,3.01 11.34,4.5 3.01,0.92 6.07,1.9 9.17,2.89 27.17,8.65 57.48,18.31 83.86,3.79 43.34,-24.9 84.25,-53.68 125.12,-82.44 13.39,-9.43 26.78,-18.85 40.25,-28.13 0.63,-0.41 1.34,-0.87 2.12,-1.37 11.47,-7.44 37.28,-24.16 27.73,-1.12 -22.57,24.69 -46.75,46.53 -71.06,68.5 -16.38,14.81 -32.82,29.67 -48.88,45.48 -13.98,11.36 -28.49,34.2 -12.84,50.11 36.05,25.24 72.67,49.87 109.27,74.48 11.91,8.01 23.81,16.02 35.7,24.05 20.14,16.08 51.61,3.08 56.05,-22.05 1.97,-11.55 3.94,-23.12 5.92,-34.68 10.93,-63.88 21.85,-127.78 31.51,-191.87 1.31,-10.05 2.79,-20.1 4.28,-30.16 3.61,-24.38 7.22,-48.78 8.35,-73.29 -2.91,-24.45 -32.57,-19.08 -49.06,-13.58 -84.83,32.28 -168.8,66.95 -252.45,102.23 -9.48,4.19 -19.08,8.39 -28.75,12.61zm530.5 36.53c0,220.23 -178.53,398.77 -398.77,398.77 -220.23,0 -398.77,-178.53 -398.77,-398.77 0,-220.23 178.53,-398.77 398.77,-398.77 220.23,0 398.77,178.53 398.77,398.77z"/>
 </g>
</svg>
