<?xml version="1.0" encoding="UTF-8"?>
<!DOCTYPE svg PUBLIC "-//W3C//DTD SVG 1.1//EN" "http://www.w3.org/Graphics/SVG/1.1/DTD/svg11.dtd">
<!-- Creator: CorelDRAW -->
<svg xmlns="http://www.w3.org/2000/svg" xml:space="preserve" width="41.5603mm" height="12.7mm" version="1.1" style="shape-rendering:geometricPrecision; text-rendering:geometricPrecision; image-rendering:optimizeQuality; fill-rule:evenodd; clip-rule:evenodd"
viewBox="0 0 359.86 109.97"
 xmlns:xlink="http://www.w3.org/1999/xlink"
 xmlns:xodm="http://www.corel.com/coreldraw/odm/2003">
 <defs>
  <style type="text/css">
   <![CDATA[
    .fil0 {fill:white}
   ]]>
  </style>
 </defs>
 <g id="Слой_x0020_1">
  <metadata id="CorelCorpID_0Corel-Layer"/>
  <path class="fil0" d="M351.14 53.82c0.07,-2.53 -0.44,-4.52 -1.53,-5.96 -1.09,-1.46 -2.76,-2.18 -5.03,-2.18 -1.14,0 -2.15,0.22 -2.99,0.65 -0.85,0.43 -1.56,1.01 -2.12,1.74 -0.56,0.73 -0.99,1.59 -1.28,2.58 -0.3,1.01 -0.48,2.05 -0.52,3.18l13.49 0 0 0 -0.01 -0.01zm8.72 2.56c0,1.1 -0.25,1.9 -0.73,2.43 -0.48,0.52 -1.16,0.8 -2.03,0.8l-19.46 0c0,1.35 0.16,2.58 0.48,3.69 0.32,1.1 0.83,2.04 1.53,2.81 0.7,0.77 1.61,1.35 2.73,1.76 1.11,0.4 2.43,0.61 3.98,0.61 1.57,0 2.96,-0.11 4.15,-0.34 1.18,-0.23 2.22,-0.48 3.09,-0.76 0.87,-0.28 1.59,-0.52 2.16,-0.76 0.58,-0.23 1.04,-0.34 1.39,-0.34 0.22,0 0.4,0.04 0.54,0.12 0.15,0.08 0.27,0.23 0.37,0.45 0.08,0.21 0.16,0.51 0.19,0.91 0.04,0.39 0.05,0.89 0.05,1.48 0,0.52 -0.01,0.98 -0.04,1.35 -0.03,0.37 -0.06,0.69 -0.11,0.94 -0.05,0.27 -0.11,0.48 -0.21,0.66 -0.1,0.18 -0.22,0.36 -0.37,0.52 -0.16,0.16 -0.58,0.39 -1.27,0.69 -0.7,0.29 -1.57,0.58 -2.65,0.85 -1.08,0.28 -2.3,0.52 -3.68,0.73 -1.38,0.21 -2.86,0.32 -4.44,0.32 -2.85,0 -5.33,-0.36 -7.47,-1.07 -2.12,-0.7 -3.91,-1.79 -5.35,-3.25 -1.43,-1.46 -2.49,-3.3 -3.2,-5.51 -0.7,-2.22 -1.05,-4.82 -1.05,-7.81 0,-2.84 0.37,-5.39 1.11,-7.67 0.73,-2.27 1.81,-4.2 3.22,-5.79 1.41,-1.59 3.12,-2.8 5.13,-3.63 2.03,-0.84 4.3,-1.25 6.83,-1.25 2.67,0 4.96,0.39 6.85,1.19 1.9,0.78 3.46,1.89 4.68,3.28 1.21,1.39 2.11,3.06 2.69,4.96 0.58,1.9 0.85,3.98 0.85,6.23l0 1.43 0 0 0.05 -0.02zm-38.3 16.9c0,0.23 -0.07,0.44 -0.22,0.62 -0.14,0.18 -0.37,0.33 -0.7,0.45 -0.34,0.11 -0.8,0.21 -1.36,0.27 -0.58,0.06 -1.31,0.08 -2.19,0.08 -0.92,0 -1.67,-0.03 -2.23,-0.08 -0.58,-0.06 -1.03,-0.16 -1.38,-0.27 -0.34,-0.12 -0.59,-0.27 -0.72,-0.45 -0.14,-0.18 -0.19,-0.39 -0.19,-0.62l0 -18.93c0,-1.08 -0.1,-2.05 -0.3,-2.93 -0.19,-0.89 -0.51,-1.65 -0.93,-2.27 -0.41,-0.63 -0.94,-1.13 -1.56,-1.48 -0.63,-0.34 -1.38,-0.51 -2.26,-0.51 -1.08,0 -2.16,0.41 -3.25,1.26 -1.1,0.83 -2.29,2.05 -3.57,3.64l0 21.23c0,0.23 -0.07,0.44 -0.22,0.62 -0.14,0.18 -0.37,0.33 -0.73,0.45 -0.34,0.11 -0.81,0.21 -1.38,0.27 -0.58,0.06 -1.29,0.08 -2.15,0.08 -0.89,0 -1.63,-0.03 -2.2,-0.08 -0.58,-0.06 -1.04,-0.16 -1.38,-0.27 -0.36,-0.12 -0.59,-0.27 -0.73,-0.45 -0.15,-0.18 -0.22,-0.39 -0.22,-0.62l0 -18.93c0,-1.08 -0.1,-2.05 -0.3,-2.93 -0.19,-0.89 -0.5,-1.65 -0.92,-2.27 -0.4,-0.63 -0.92,-1.13 -1.56,-1.48 -0.65,-0.34 -1.41,-0.51 -2.26,-0.51 -1.1,0 -2.19,0.41 -3.29,1.26 -1.1,0.83 -2.29,2.05 -3.54,3.64l0 21.23c0,0.23 -0.07,0.44 -0.22,0.62 -0.14,0.18 -0.37,0.33 -0.73,0.45 -0.34,0.11 -0.81,0.21 -1.37,0.27 -0.58,0.06 -1.31,0.08 -2.19,0.08 -0.88,0 -1.61,-0.03 -2.19,-0.08 -0.56,-0.06 -1.03,-0.16 -1.36,-0.27 -0.36,-0.12 -0.59,-0.27 -0.73,-0.45 -0.15,-0.18 -0.22,-0.39 -0.22,-0.62l0 -31.97c0,-0.23 0.06,-0.44 0.18,-0.62 0.11,-0.18 0.33,-0.33 0.63,-0.45 0.32,-0.11 0.7,-0.21 1.2,-0.27 0.48,-0.06 1.11,-0.08 1.85,-0.08 0.77,0 1.39,0.03 1.89,0.08 0.5,0.06 0.89,0.16 1.17,0.27 0.27,0.12 0.47,0.27 0.59,0.45 0.12,0.18 0.18,0.39 0.18,0.62l0 3.69c1.76,-1.9 3.51,-3.32 5.28,-4.27 1.76,-0.95 3.59,-1.43 5.5,-1.43 1.32,0 2.51,0.14 3.56,0.41 1.05,0.27 1.98,0.66 2.81,1.17 0.82,0.51 1.53,1.13 2.12,1.83 0.59,0.72 1.1,1.52 1.5,2.4 0.95,-1.03 1.89,-1.9 2.81,-2.64 0.92,-0.73 1.83,-1.35 2.73,-1.81 0.89,-0.47 1.78,-0.81 2.69,-1.03 0.89,-0.23 1.79,-0.34 2.74,-0.34 2.11,0 3.91,0.36 5.36,1.08 1.46,0.7 2.63,1.68 3.51,2.92 0.91,1.22 1.54,2.66 1.92,4.31 0.37,1.65 0.58,3.39 0.58,5.23l0 20.44 0 0 -0.02 -0.01zm-83.54 -19.47c0.07,-2.53 -0.44,-4.52 -1.53,-5.96 -1.09,-1.46 -2.76,-2.18 -5.03,-2.18 -1.14,0 -2.15,0.22 -2.99,0.65 -0.85,0.43 -1.56,1.01 -2.12,1.74 -0.56,0.73 -0.99,1.59 -1.28,2.58 -0.3,1.01 -0.48,2.05 -0.52,3.18l13.49 0 0 0 -0.01 -0.01zm8.72 2.56c0,1.1 -0.25,1.9 -0.73,2.43 -0.48,0.52 -1.16,0.8 -2.03,0.8l-19.46 0c0,1.35 0.16,2.58 0.48,3.69 0.32,1.1 0.83,2.04 1.53,2.81 0.7,0.77 1.61,1.35 2.73,1.76 1.11,0.4 2.43,0.61 3.98,0.61 1.57,0 2.96,-0.11 4.15,-0.34 1.18,-0.23 2.22,-0.48 3.09,-0.76 0.87,-0.28 1.59,-0.52 2.16,-0.76 0.58,-0.23 1.04,-0.34 1.39,-0.34 0.22,0 0.4,0.04 0.54,0.12 0.15,0.08 0.27,0.23 0.37,0.45 0.08,0.21 0.16,0.51 0.19,0.91 0.04,0.39 0.05,0.89 0.05,1.48 0,0.52 -0.01,0.98 -0.04,1.35 -0.03,0.37 -0.06,0.69 -0.11,0.94 -0.05,0.27 -0.11,0.48 -0.21,0.66 -0.1,0.18 -0.22,0.36 -0.37,0.52 -0.16,0.16 -0.58,0.39 -1.27,0.69 -0.7,0.29 -1.57,0.58 -2.65,0.85 -1.08,0.28 -2.3,0.52 -3.68,0.73 -1.38,0.21 -2.86,0.32 -4.44,0.32 -2.85,0 -5.33,-0.36 -7.47,-1.07 -2.12,-0.7 -3.91,-1.79 -5.35,-3.25 -1.43,-1.46 -2.49,-3.3 -3.2,-5.51 -0.7,-2.22 -1.05,-4.82 -1.05,-7.81 0,-2.84 0.37,-5.39 1.11,-7.67 0.73,-2.27 1.81,-4.2 3.22,-5.79 1.41,-1.59 3.12,-2.8 5.13,-3.63 2.03,-0.84 4.3,-1.25 6.83,-1.25 2.67,0 4.96,0.39 6.85,1.19 1.9,0.78 3.46,1.89 4.68,3.28 1.21,1.39 2.11,3.06 2.69,4.96 0.58,1.9 0.85,3.98 0.85,6.23l0 1.43 0 0 0.05 -0.02zm-34.17 -12.08c0,0.85 -0.03,1.56 -0.07,2.11 -0.05,0.55 -0.12,0.98 -0.21,1.28 -0.1,0.3 -0.23,0.52 -0.37,0.65 -0.16,0.12 -0.36,0.17 -0.59,0.17 -0.18,0 -0.4,-0.04 -0.65,-0.12 -0.23,-0.08 -0.5,-0.17 -0.81,-0.27 -0.29,-0.1 -0.62,-0.18 -0.98,-0.27 -0.37,-0.08 -0.76,-0.12 -1.19,-0.12 -0.5,0 -1.01,0.1 -1.5,0.3 -0.5,0.21 -1.03,0.51 -1.56,0.95 -0.54,0.43 -1.1,1.01 -1.68,1.71 -0.59,0.72 -1.21,1.6 -1.89,2.65l0 19.92c0,0.23 -0.07,0.44 -0.22,0.62 -0.14,0.18 -0.37,0.33 -0.73,0.45 -0.34,0.11 -0.81,0.21 -1.37,0.27 -0.58,0.06 -1.31,0.08 -2.19,0.08 -0.88,0 -1.61,-0.03 -2.19,-0.08 -0.56,-0.06 -1.03,-0.16 -1.36,-0.27 -0.36,-0.12 -0.59,-0.27 -0.73,-0.45 -0.15,-0.18 -0.22,-0.39 -0.22,-0.62l0 -31.97c0,-0.23 0.06,-0.44 0.18,-0.62 0.11,-0.18 0.33,-0.33 0.63,-0.45 0.32,-0.11 0.7,-0.21 1.2,-0.27 0.48,-0.06 1.11,-0.08 1.85,-0.08 0.77,0 1.39,0.03 1.89,0.08 0.5,0.06 0.89,0.16 1.17,0.27 0.27,0.12 0.47,0.27 0.59,0.45 0.12,0.18 0.18,0.39 0.18,0.62l0 3.98c0.83,-1.2 1.63,-2.18 2.36,-2.95 0.74,-0.77 1.46,-1.39 2.11,-1.85 0.67,-0.45 1.35,-0.77 2.01,-0.94 0.66,-0.18 1.34,-0.27 2,-0.27 0.3,0 0.65,0.01 1.01,0.05 0.36,0.04 0.73,0.1 1.11,0.18 0.37,0.08 0.72,0.18 1.01,0.28 0.29,0.11 0.5,0.22 0.63,0.34 0.12,0.12 0.22,0.26 0.28,0.39 0.06,0.15 0.11,0.34 0.16,0.6 0.05,0.25 0.08,0.62 0.11,1.13 0.03,0.5 0.04,1.17 0.04,2.03l0 0 -0.01 -0.01zm-28.79 -13.83c0,1.82 -0.37,3.07 -1.11,3.76 -0.74,0.7 -2.11,1.03 -4.13,1.03 -2.03,0 -3.4,-0.33 -4.11,-1.01 -0.7,-0.67 -1.06,-1.89 -1.06,-3.62 0,-1.82 0.37,-3.07 1.1,-3.79 0.72,-0.7 2.1,-1.05 4.15,-1.05 2,0 3.38,0.34 4.09,1.03 0.72,0.68 1.08,1.89 1.08,3.63l0 0 -0.01 0.01zm-0.73 42.81c0,0.23 -0.07,0.44 -0.22,0.62 -0.14,0.18 -0.37,0.33 -0.73,0.45 -0.34,0.11 -0.81,0.21 -1.37,0.27 -0.58,0.06 -1.31,0.08 -2.19,0.08 -0.88,0 -1.61,-0.03 -2.19,-0.08 -0.56,-0.06 -1.03,-0.16 -1.36,-0.27 -0.36,-0.12 -0.59,-0.27 -0.73,-0.45 -0.15,-0.18 -0.22,-0.39 -0.22,-0.62l0 -31.88c0,-0.23 0.07,-0.44 0.22,-0.62 0.14,-0.18 0.37,-0.34 0.73,-0.47 0.34,-0.14 0.81,-0.23 1.36,-0.3 0.58,-0.07 1.31,-0.11 2.19,-0.11 0.88,0 1.61,0.04 2.19,0.11 0.56,0.07 1.03,0.17 1.37,0.3 0.36,0.12 0.59,0.28 0.73,0.47 0.15,0.18 0.22,0.39 0.22,0.62l0 31.88zm-18.61 -0.07c0,0.23 -0.07,0.45 -0.23,0.65 -0.16,0.18 -0.41,0.34 -0.77,0.47 -0.36,0.11 -0.83,0.21 -1.43,0.28 -0.59,0.07 -1.35,0.11 -2.23,0.11 -0.92,0 -1.69,-0.04 -2.31,-0.11 -0.61,-0.07 -1.07,-0.17 -1.43,-0.28 -0.34,-0.12 -0.59,-0.28 -0.74,-0.47 -0.16,-0.19 -0.23,-0.41 -0.23,-0.65l0 -18.73 -17.37 0 0 18.73c0,0.23 -0.07,0.45 -0.22,0.65 -0.14,0.18 -0.39,0.34 -0.74,0.47 -0.36,0.11 -0.83,0.21 -1.43,0.28 -0.59,0.07 -1.35,0.11 -2.27,0.11 -0.91,0 -1.67,-0.04 -2.27,-0.11 -0.61,-0.07 -1.09,-0.17 -1.45,-0.28 -0.36,-0.12 -0.61,-0.28 -0.77,-0.47 -0.16,-0.19 -0.23,-0.41 -0.23,-0.65l0 -43.76c0,-0.23 0.07,-0.45 0.23,-0.65 0.16,-0.18 0.41,-0.34 0.77,-0.47 0.36,-0.12 0.83,-0.21 1.45,-0.28 0.61,-0.07 1.37,-0.11 2.27,-0.11 0.92,0 1.68,0.04 2.27,0.11 0.59,0.07 1.07,0.17 1.43,0.28 0.36,0.12 0.61,0.28 0.74,0.47 0.15,0.19 0.22,0.41 0.22,0.65l0 17.04 17.37 0 0 -17.04c0,-0.23 0.07,-0.45 0.23,-0.65 0.16,-0.18 0.4,-0.34 0.74,-0.47 0.36,-0.11 0.82,-0.21 1.43,-0.28 0.61,-0.07 1.38,-0.11 2.31,-0.11 0.89,0 1.65,0.04 2.23,0.11 0.59,0.07 1.08,0.16 1.43,0.28 0.36,0.12 0.61,0.28 0.77,0.47 0.16,0.19 0.23,0.41 0.23,0.65l0 43.76z"/>
  <path class="fil0" d="M36.83 49.95c-5.51,2.41 -11.16,4.88 -16.35,7.72 -2.7,1.98 0.89,3.38 4.26,4.69 0.54,0.21 1.06,0.41 1.56,0.62 0.41,0.13 0.83,0.27 1.26,0.4 3.74,1.19 7.93,2.53 11.56,0.52 5.98,-3.43 11.61,-7.4 17.25,-11.37 1.85,-1.3 3.69,-2.6 5.55,-3.88 0.08,-0.05 0.18,-0.12 0.29,-0.19 1.58,-1.03 5.14,-3.33 3.83,-0.16 -3.11,3.4 -6.44,6.42 -9.8,9.44 -2.26,2.04 -4.52,4.09 -6.74,6.27 -1.93,1.56 -3.93,4.71 -1.77,6.91 4.97,3.48 10.02,6.87 15.06,10.27 1.64,1.11 3.29,2.21 4.92,3.31 2.77,2.21 7.12,0.42 7.72,-3.04 0.27,-1.59 0.54,-3.18 0.81,-4.78 1.51,-8.8 3.01,-17.62 4.35,-26.46 0.18,-1.38 0.38,-2.77 0.59,-4.15 0.49,-3.36 1,-6.73 1.15,-10.1 -0.4,-3.37 -4.49,-2.63 -6.76,-1.88 -11.7,4.45 -23.27,9.23 -34.8,14.09 -1.31,0.58 -2.63,1.15 -3.96,1.74l0 0 0 0zm73.14 5.03c0,30.37 -24.62,54.98 -54.98,54.98 -30.37,0 -54.98,-24.62 -54.98,-54.98 0,-30.37 24.62,-54.98 54.98,-54.98 30.37,0 54.98,24.62 54.98,54.98z"/>
 </g>
</svg>
