<?xml version="1.0" encoding="UTF-8"?>
<!DOCTYPE svg PUBLIC "-//W3C//DTD SVG 1.1//EN" "http://www.w3.org/Graphics/SVG/1.1/DTD/svg11.dtd">
<!-- Creator: CorelDRAW -->
<svg xmlns="http://www.w3.org/2000/svg" xml:space="preserve" width="200mm" height="200mm" version="1.1" style="shape-rendering:geometricPrecision; text-rendering:geometricPrecision; image-rendering:optimizeQuality; fill-rule:evenodd; clip-rule:evenodd"
viewBox="0 0 1775.85 1775.85"
 xmlns:xlink="http://www.w3.org/1999/xlink"
 xmlns:xodm="http://www.corel.com/coreldraw/odm/2003">
 <defs>
  <style type="text/css">
   <![CDATA[
    .fil0 {fill:white}
   ]]>
  </style>
 </defs>
 <g id="Слой_x0020_1">
  <metadata id="CorelCorpID_0Corel-Layer"/>
  <path class="fil0" d="M887.93 0c490.39,0 887.93,397.54 887.93,887.93 0,490.39 -397.54,887.93 -887.93,887.93 -490.39,0 -887.93,-397.54 -887.93,-887.93 0,-490.39 397.54,-887.93 887.93,-887.93zm311.66 338.64c67.18,0 159.25,37.32 202.79,80.87l37.32 37.32c46.03,48.52 74.65,129.39 79.62,199.06l0 46.03c-9.95,144.32 -110.73,253.8 -227.68,293.62 -67.18,23.64 -88.33,9.95 -108.24,24.88l-248.83 182.89c-11.2,8.71 -14.93,9.95 -21.15,14.93 -17.42,140.59 -140.59,218.97 -262.51,218.97 -88.33,0 -174.18,-41.06 -220.21,-129.39 -16.17,-31.1 -17.42,-42.3 -23.64,-57.23l-123.17 -49.76c-9.95,-3.73 -22.39,-11.2 -24.88,-26.13l-2.49 -14.93 0 -265c1.24,-26.13 16.17,-39.81 36.08,-39.81 4.98,0 9.95,1.24 16.17,2.49 75.89,31.1 153.03,59.72 227.68,92.07l19.91 -8.71c41.06,-17.42 64.7,-19.91 109.48,-19.91 6.22,-8.71 14.93,-21.15 19.91,-28.62l110.73 -158c8.71,-11.2 38.57,-53.5 48.52,-70.92 7.46,-110.73 42.3,-167.96 110.73,-237.63 53.5,-51.01 148.05,-87.09 243.85,-87.09l0 -0zm-539.95 637c-42.3,0 -54.74,4.98 -104.51,26.13 -6.22,2.49 -12.44,3.73 -17.42,3.73 -14.93,0 -29.86,-8.71 -42.3,-13.69 -60.96,-24.88 -123.17,-49.76 -184.13,-74.65l0 235.14 123.17 49.76c31.1,14.93 23.64,42.3 44.79,80.87 34.84,68.43 103.26,99.53 172.93,99.53 94.55,0 189.11,-58.47 205.28,-164.22l2.49 -13.69c3.73,-23.64 19.91,-29.86 41.06,-46.03l250.07 -182.89c36.08,-26.13 65.94,-12.44 123.17,-32.35 97.04,-33.59 181.64,-124.41 190.35,-245.09l0 -39.81c-3.73,-55.99 -28.61,-120.68 -64.69,-162.98l-36.08 -36.08c-43.54,-39.81 -115.7,-65.94 -186.62,-65.94 -37.32,0 -75.89,7.46 -109.48,23.64 -105.75,52.25 -162.98,136.85 -172.93,268.73 -7.46,13.69 -47.28,70.92 -54.74,80.87l-109.48 156.76c-18.66,19.91 -18.66,48.52 -49.77,52.25l-21.15 0zm-11.2 352.09c-27.37,0 -55.99,-13.69 -72.16,-24.88 -13.69,-9.95 -41.06,-32.35 -46.03,-49.76 29.86,7.46 70.92,36.08 116.95,36.08 24.88,0 52.25,-9.95 79.62,-34.84 23.64,-22.39 36.08,-54.74 36.08,-87.09 -4.98,-79.62 -62.21,-113.22 -129.39,-131.88 2.49,-3.73 1.24,-4.98 7.46,-4.98l13.68 -0c90.82,0 150.54,70.92 150.54,148.05 0,74.65 -52.25,149.3 -156.76,149.3zm376.97 -659.39c0,-90.82 73.4,-165.47 164.23,-165.47 90.82,0 165.47,74.65 165.47,165.47 0,90.82 -74.65,164.23 -165.47,164.23 -90.82,0 -164.23,-73.4 -164.23,-164.23zm54.74 0c0,60.96 48.52,109.48 109.48,109.48 60.96,0 110.73,-48.52 110.73,-109.48 0,-60.96 -49.76,-110.73 -110.73,-110.73 -60.96,0 -109.48,49.76 -109.48,110.73z"/>
 </g>
</svg>
