<?xml version="1.0" encoding="UTF-8"?>
<!DOCTYPE svg PUBLIC "-//W3C//DTD SVG 1.1//EN" "http://www.w3.org/Graphics/SVG/1.1/DTD/svg11.dtd">
<!-- Creator: CorelDRAW -->
<svg xmlns="http://www.w3.org/2000/svg" xml:space="preserve" width="200mm" height="200mm" version="1.1" style="shape-rendering:geometricPrecision; text-rendering:geometricPrecision; image-rendering:optimizeQuality; fill-rule:evenodd; clip-rule:evenodd"
viewBox="0 0 2484.69 2484.69"
 xmlns:xlink="http://www.w3.org/1999/xlink"
 xmlns:xodm="http://www.corel.com/coreldraw/odm/2003">
 <defs>
  <style type="text/css">
   <![CDATA[
    .fil0 {fill:white}
   ]]>
  </style>
 </defs>
 <g id="Слой_x0020_1">
  <metadata id="CorelCorpID_0Corel-Layer"/>
  <path class="fil0" d="M1242.35 0c686.13,0 1242.35,556.22 1242.35,1242.35 0,686.13 -556.22,1242.35 -1242.35,1242.35 -686.13,0 -1242.35,-556.22 -1242.35,-1242.35 0,-686.13 556.22,-1242.35 1242.35,-1242.35zm-313.6 1489.85l-28.26 397.75c0.21,0 0.42,0 0.62,0 30.6,0 59.52,-14.12 78.31,-38.26l189.57 -181.3 393.62 287.8c71.69,40.33 122.36,19.3 142.01,-66.18l258.16 -1210.49 -0 0c22.75,-106.5 -37.22,-149.24 -108.92,-122.36l-1516.56 580.78c-104.78,41.36 -102.37,99.26 -17.58,125.8l388.1 120.63 873.06 -509.77c42.39,-28.61 81.34,-12.75 49.63,15.17l-701.76 600.42z"/>
 </g>
</svg>
