<?xml version="1.0" encoding="UTF-8"?>
<!DOCTYPE svg PUBLIC "-//W3C//DTD SVG 1.1//EN" "http://www.w3.org/Graphics/SVG/1.1/DTD/svg11.dtd">
<!-- Creator: CorelDRAW -->
<svg xmlns="http://www.w3.org/2000/svg" xml:space="preserve" width="320.042mm" height="320.042mm" version="1.1" style="shape-rendering:geometricPrecision; text-rendering:geometricPrecision; image-rendering:optimizeQuality; fill-rule:evenodd; clip-rule:evenodd"
viewBox="0 0 168582.38 168582.38"
 xmlns:xlink="http://www.w3.org/1999/xlink"
 xmlns:xodm="http://www.corel.com/coreldraw/odm/2003">
 <defs>
  <style type="text/css">
   <![CDATA[
    .fil0 {fill:white}
   ]]>
  </style>
 </defs>
 <g id="Слой_x0020_1">
  <metadata id="CorelCorpID_0Corel-Layer"/>
  <path class="fil0" d="M84291.06 0c46552.85,0 84291.32,37738.47 84291.32,84291.32 0,46552.59 -37738.47,84291.06 -84291.32,84291.06 -46552.59,0 -84291.06,-37738.47 -84291.06,-84291.06 0,-46552.85 37738.47,-84291.32 84291.06,-84291.32zm48795.44 59499.22c4874.5,-3537.39 8986.95,-8037.06 12079.39,-13207.53 -4232.02,2040.11 -8810.69,3340.97 -13484.97,3840.17 4893.04,-3326.27 8579.03,-8167.53 10488.82,-13766.63 -4880.34,2825.17 -10207.43,4855.85 -15733.73,5993.16 -4812.08,-5149.62 -11554.75,-8076.25 -18608.47,-8076.25 -14066.93,0 -25474.66,11407.79 -25474.66,25474.71 0,2024.67 245.73,4052.45 721.6,6017.97 -20216.53,-1151 -39005.36,-10825.25 -51697.41,-26596.27 -1961.41,3798.93 -2985.25,8025.68 -2985.25,12304.84 0,8295.85 3836.17,16132.32 10382.99,21222.1 -3729.92,-292.19 -7370.56,-1351.12 -10678.39,-3092.5 -1.05,210.49 -7.22,424.98 -7.22,636.42 0,11699.66 8086.73,21851.67 19489.19,24465.67 -1761.35,303.25 -3550.19,456.48 -5338.99,456.48 -1788.85,0 -3577.69,-153.23 -5339.67,-455.74 3044.62,10284.33 12322.44,17486.07 23041.18,17886.08 -8805.59,6772.17 -19613.88,10450.84 -30723.52,10450.84 -1937.7,0 -3881.57,-116.94 -5800.95,-338.33 10931.08,7544.02 23921.43,11585.93 37207.82,11585.93 952.47,0 1928.91,-24.02 2873.37,-64.05 41304.47,-1871.97 68933.33,-30999.28 69588.87,-74737.07z"/>
 </g>
</svg>
